:SAMPLES-PER-SECOND 30
:FRAME-RANGE 1-668
:FULLY-SPECIFIED
:DEGREES
209
root  44.0386 39.7159 5.82492 178.334 -24.7365 179.64
RightUpLeg  -4.49905 -10.2473 -4.85993
RightLeg  14.4848 -10.7398 -1.74927
RightFoot  -7.76924 -0.261919 6.69572
RightToes  -1.33073e-015 0 -3.6325e-017
Spine  -1.47519 2.14052 7.87196
Spine1  6.9804 1.43151 3.25772
HEad  -1.20242 -12.5317 -16.3201
LeftShoulder1  0.425269 0.384442 -5.86237
LeftArm  0.895578 13.3449 -3.18267
LeftForeArm  -33.7729 -62.8918 -25.6003
LeftHand  -3.42652 20.5952 -23.8373
RightShoulder  2.25528 7.725 13.1207
RightArm  -33.856 8.36847 -9.71964
RightForeArm  20.9638 -0.0987075 6.77227
RightHand  -0.687853 2.70158 -10.0691
LeftUpLeg  3.77517 12.1206 11.9458
LeftLeg  6.72029 6.02064 -0.244584
LeftFoot  -4.94003 0.676808 -11.545
LeftToes  -2.73175e-012 1.00346e-010 -4.28452e-011
210
root  44.1658 39.7223 5.78401 179.185 -24.9034 179.057
RightUpLeg  -5.60428 -10.0161 -4.83162
RightLeg  15.2865 -11.121 -2.47111
RightFoot  -7.9859 -0.249085 6.64074
RightToes  -1.33073e-015 0 -3.6325e-017
Spine  -0.786487 2.3249 9.56977
Spine1  6.27537 2.33162 0.411523
HEad  -1.64998 -12.6696 -15.1486
LeftShoulder1  0.468953 0.832206 -10.242
LeftArm  -9.66993 11.75 -6.29236
LeftForeArm  -29.6961 -60.5626 -22.8643
LeftHand  -2.42348 17.7112 -20.7805
RightShoulder  2.67424 8.39402 15.7509
RightArm  -28.2996 6.25972 -8.22459
RightForeArm  18.3724 -0.60331 8.77362
RightHand  -0.270494 2.82297 -4.04334
LeftUpLeg  3.58056 11.6364 11.4481
LeftLeg  5.58198 6.56105 -0.528828
LeftFoot  -4.21233 0.754068 -11.67
LeftToes  -2.73175e-012 1.00346e-010 -4.28452e-011
211
root  44.3453 39.7172 5.72452 179.817 -24.8322 178.723
RightUpLeg  -6.49396 -9.90349 -4.59648
RightLeg  15.8473 -11.1551 -2.83341
RightFoot  -8.3051 -0.225817 6.38157
RightToes  -1.33073e-015 0 -3.6325e-017
Spine  -0.0243165 2.48015 11.2316
Spine1  5.70281 3.16228 -2.26904
HEad  -2.16863 -12.6667 -13.5037
LeftShoulder1  0.590879 0.885639 -15.7618
LeftArm  -19.3234 9.12689 -9.34642
LeftForeArm  -20.9566 -57.953 -19.9796
LeftHand  -1.28326 13.551 -16.3876
RightShoulder  3.20295 9.00653 19.1476
RightArm  -23.0886 4.70215 -6.77597
RightForeArm  19.1286 -0.558283 10.5357
RightHand  0.165206 3.08462 2.03382
LeftUpLeg  3.50132 11.3592 11.3202
LeftLeg  4.57789 7.03152 -0.733031
LeftFoot  -3.5586 0.845066 -12.0761
LeftToes  -2.73175e-012 1.00346e-010 -4.28452e-011
212
root  44.5953 39.6786 5.61911 -179.491 -24.5429 178.422
RightUpLeg  -7.70754 -10.3997 -4.21034
RightLeg  16.8825 -10.4224 -3.07374
RightFoot  -9.01133 -0.183277 5.99334
RightToes  -1.33073e-015 0 -3.6325e-017
Spine  0.354028 2.53915 11.9639
Spine1  5.44385 3.65044 -4.06289
HEad  -2.26659 -12.1998 -11.7866
LeftShoulder1  0.821668 0.588281 -21.8049
LeftArm  -28.0167 5.98641 -12.4787
LeftForeArm  -12.0244 -54.7847 -17.0292
LeftHand  -0.480997 9.37331 -11.8501
RightShoulder  3.89288 9.74549 23.1856
RightArm  -18.0178 4.10254 -5.20002
RightForeArm  23.7084 -0.347305 12.0487
RightHand  0.566899 4.16022 6.60316
LeftUpLeg  3.23719 11.41 11.4267
LeftLeg  3.97576 7.38809 -0.957491
LeftFoot  -3.06718 0.928079 -12.5384
LeftToes  -2.73175e-012 1.00346e-010 -4.28452e-011
213
root  44.9291 39.5999 5.44766 -178.863 -24.0925 178.198
RightUpLeg  -9.02891 -11.0071 -3.53071
RightLeg  18.2689 -9.54087 -3.35555
RightFoot  -10.2794 -0.12223 5.64732
RightToes  -1.33073e-015 0 -3.6325e-017
Spine  0.732201 2.31958 11.8067
Spine1  5.03987 3.66162 -5.08528
HEad  -1.80599 -10.7262 -10.0506
LeftShoulder1  1.05929 0.227717 -26.1658
LeftArm  -34.1412 3.04511 -16.3362
LeftForeArm  -4.31107 -49.1456 -13.3069
LeftHand  -0.0757766 6.25206 -4.82374
RightShoulder  4.59806 10.2871 27.3293
RightArm  -14.3887 4.46095 -2.56654
RightForeArm  31.2649 0.356485 12.6831
RightHand  1.09669 6.3005 10.4942
LeftUpLeg  2.91557 11.5967 11.7762
LeftLeg  3.75825 7.67779 -1.02343
LeftFoot  -2.78178 1.00917 -13.2166
LeftToes  -2.73175e-012 1.00346e-010 -4.28452e-011
214
root  45.3292 39.4808 5.20556 -178.553 -23.3614 178.146
RightUpLeg  -10.1554 -10.9724 -2.60531
RightLeg  19.9295 -8.71983 -3.63422
RightFoot  -11.8211 -0.0578484 5.35077
RightToes  -1.33073e-015 0 -3.6325e-017
Spine  0.954416 1.91148 11.2134
Spine1  5.13804 3.29845 -5.2434
HEad  -1.58195 -9.19974 -8.35531
LeftShoulder1  1.26246 -0.0979719 -28.9655
LeftArm  -39.1678 0.360341 -20.2337
LeftForeArm  -0.809697 -41.1817 -9.84321
LeftHand  -0.0163545 6.31704 1.96586
RightShoulder  5.54615 11.0772 32.1159
RightArm  -9.51747 5.02301 -0.0903009
RightForeArm  33.0395 2.61624 13.2841
RightHand  1.55618 7.20209 13.8738
LeftUpLeg  2.76056 12.1732 12.6183
LeftLeg  4.11188 7.70804 -1.10488
LeftFoot  -2.79017 1.0758 -14.1091
LeftToes  -2.73175e-012 1.00346e-010 -4.28452e-011
215
root  45.7868 39.3139 4.88822 -178.587 -22.3266 178.432
RightUpLeg  -11.0443 -9.73345 -1.28276
RightLeg  21.7847 -8.83788 -4.08574
RightFoot  -13.4315 -0.00147664 4.91188
RightToes  -1.33073e-015 0 -3.6325e-017
Spine  1.10886 1.45843 10.4959
Spine1  5.51483 2.72333 -4.54153
HEad  -1.20505 -7.57273 -7.5378
LeftShoulder1  1.38794 -0.338623 -30.0573
LeftArm  -42.4175 -0.849103 -22.8178
LeftForeArm  -3.45471 -32.2641 -7.30586
LeftHand  0.0479905 6.72384 6.6212
RightShoulder  6.74276 12.0242 37.4256
RightArm  -2.32597 5.35851 2.13515
RightForeArm  29.6842 5.60256 13.6202
RightHand  1.63237 6.5533 15.3831
LeftUpLeg  2.49782 13.0267 13.8784
LeftLeg  5.47896 7.57489 -0.70517
LeftFoot  -3.15258 1.11877 -15.2911
LeftToes  -2.73175e-012 1.00346e-010 -4.28452e-011
